<svg xmlns="http://www.w3.org/2000/svg" viewBox="0 0 42.23 42.23"><defs><style>.cls-1{fill:#fff;stroke:#fff;}.cls-1,.cls-2{stroke-miterlimit:10;}.cls-2{fill:#231f20;stroke:#231f20;}</style></defs><g id="Layer_4" data-name="Layer 4"><circle class="cls-1" cx="21.12" cy="21.12" r="20.62"/><path class="cls-2" d="M415.26,639.24V621.53a.59.59,0,0,0-.6-.59h-3.52a.6.6,0,0,0-.61.59v17.71a.6.6,0,0,0,.61.6h3.52A.6.6,0,0,0,415.26,639.24Z" transform="translate(-395.72 -609.16)"/><path class="cls-2" d="M422.54,620.94H419a.59.59,0,0,0-.6.59v17.71a.6.6,0,0,0,.6.6h3.53a.6.6,0,0,0,.6-.6V621.53A.59.59,0,0,0,422.54,620.94Z" transform="translate(-395.72 -609.16)"/></g></svg>