<svg id="playpause" xmlns="http://www.w3.org/2000/svg" viewBox="0 0 41.03 41.03"><defs><style>.cls-1{fill:#fff;stroke:#fff;stroke-width:0.75px;}.cls-1,.cls-2{stroke-miterlimit:10;}.cls-2{fill:#231f20;stroke:#231f20;}</style></defs><circle class="cls-1" cx="20.51" cy="20.51" r="20.14"/><path class="cls-2" d="M422.43,77.86V60.16a.6.6,0,0,0-.6-.6h-3.52a.6.6,0,0,0-.6.6v17.7a.6.6,0,0,0,.6.6h3.52A.59.59,0,0,0,422.43,77.86Z" transform="translate(-403.49 -48.5)"/><path class="cls-2" d="M429.71,59.56h-3.53a.6.6,0,0,0-.6.6v17.7a.6.6,0,0,0,.6.6h3.53a.6.6,0,0,0,.6-.6V60.16A.6.6,0,0,0,429.71,59.56Z" transform="translate(-403.49 -48.5)"/></svg>