<svg id="detales" xmlns="http://www.w3.org/2000/svg" viewBox="0 0 39.4 81.49"><defs><style>.cls-1{fill:#fff;}</style></defs><path class="cls-1" d="M18.15,79.44C13,79.44,9,74.58,7.24,69.54c-2-5.79-2.2-12-2.38-17.93L3.5,5A.5.5,0,0,1,4,4.5.52.52,0,0,1,4.5,5L5.86,51.58c.17,5.89.35,12,2.32,17.63,1.66,4.76,5.7,9.67,10.66,9.19,5.62-.53,8.34-7.43,9-9.53,1.7-5.09,2.34-10.54,2.9-16.14,1.37-13.88,2.44-31.75,2.92-49a.5.5,0,0,1,.51-.49.51.51,0,0,1,.49.52C34.22,21,33.15,38.93,31.77,52.83c-.56,5.66-1.21,11.17-2.94,16.36-1,2.88-3.84,9.63-9.89,10.21A7.09,7.09,0,0,1,18.15,79.44Z"/><path class="cls-1" d="M24,73.93h0l-11.92-.27a.5.5,0,0,1-.48-.43,39.22,39.22,0,0,1,.24-12.7,12.57,12.57,0,0,1,2-5.25,5.6,5.6,0,0,1,5.13-2.45,5.65,5.65,0,0,1,3.92,2.9,13.19,13.19,0,0,1,1.38,4.54,48.78,48.78,0,0,1,.27,13.22A.51.51,0,0,1,24,73.93ZM12.51,72.67l11,.25a47.92,47.92,0,0,0-.32-12.49A12.08,12.08,0,0,0,22,56.22a4.62,4.62,0,0,0-3.19-2.4,4.6,4.6,0,0,0-4.19,2,11.68,11.68,0,0,0-1.78,4.84A38.09,38.09,0,0,0,12.51,72.67Z"/><path class="cls-1" d="M13.42,38.71a.49.49,0,0,1-.48-.39.5.5,0,0,1,.38-.6,48,48,0,0,1,12.07-1,.5.5,0,0,1,0,1,46.92,46.92,0,0,0-11.82,1Z"/><path class="cls-1" d="M13.38,33.27a.5.5,0,0,1-.08-1,43.84,43.84,0,0,1,9.84-.52.5.5,0,0,1,.47.53.49.49,0,0,1-.53.47,42.48,42.48,0,0,0-9.62.51Z"/><path class="cls-1" d="M23.11,26.63H23a20,20,0,0,0-7.82-.11.51.51,0,0,1-.58-.41.5.5,0,0,1,.4-.58,21,21,0,0,1,8.21.12.5.5,0,0,1-.1,1Z"/><path class="cls-1" d="M18.79,56.9h-.42a5.29,5.29,0,0,1-3.56-1.84.51.51,0,0,1,.06-.71.51.51,0,0,1,.71.06,4.28,4.28,0,0,0,2.87,1.49,4.33,4.33,0,0,0,3.08-1,.5.5,0,0,1,.65.76A5.22,5.22,0,0,1,18.79,56.9Z"/></svg>